<svg width="190" height="259" viewBox="0 0 190 259" fill="none" xmlns="http://www.w3.org/2000/svg">
<path d="M78.0442 240.613C79.9892 248.576 75.1101 256.609 67.1467 258.554C59.1832 260.499 51.1509 255.62 49.206 247.656L0.423898 47.9181C-0.593635 43.7519 0.240662 39.3491 2.71188 35.8439C6.0555 31.1013 11.8718 24.5766 20.0824 18.0823C46.3909 -2.72691 78.5403 -7.55597 112.313 14.1195C137.012 29.9715 151.818 33.7794 172.341 29.8221C182.498 27.8635 191.493 36.634 189.792 46.8371C182.998 87.595 152.86 119.376 98.0411 119.376C75.7394 119.376 61.3157 127.287 54.5273 144.323L78.0442 240.613ZM45.3865 106.896C58.773 95.3709 76.8471 89.6899 98.0411 89.6899C127.207 89.6899 145.244 78.2857 154.347 60.8886C135.671 60.046 118.097 53.1056 96.2785 39.1025C74.3071 25.0011 55.6429 27.8046 38.4986 41.3653C35.7467 43.5419 33.2509 45.8576 31.0478 48.1862L45.3865 106.896Z" fill="#3BA881"/>
<path d="M67.1467 258.082C75.1101 256.137 79.9892 248.105 78.0443 240.141L54.5273 143.852L45.3865 106.424L31.0478 47.7147L20.0824 17.6107C11.8718 24.1051 6.0555 30.6297 2.71188 35.3723C0.240662 38.8775 -0.593635 43.2803 0.423898 47.4466L49.206 247.185C51.1509 255.148 59.1832 260.027 67.1467 258.082Z" fill="#2F292B"/>
</svg>
