<svg width="1316" height="260" viewBox="0 0 1316 260" fill="none" xmlns="http://www.w3.org/2000/svg">
<path d="M78.0443 241.613C79.9892 249.576 75.1101 257.609 67.1467 259.554C59.1832 261.499 51.1509 256.62 49.206 248.656L0.423898 48.9181C-0.593635 44.7519 0.240662 40.3491 2.71188 36.8439C6.0555 32.1013 11.8718 25.5766 20.0824 19.0823C46.3909 -1.72691 78.5403 -6.55597 112.313 15.1195C137.012 30.9715 151.818 34.7794 172.341 30.8221C182.498 28.8635 191.493 37.634 189.792 47.8371C182.998 88.595 152.86 120.376 98.0411 120.376C75.7394 120.376 61.3157 128.287 54.5273 145.323L78.0443 241.613ZM45.3865 107.896C58.773 96.3709 76.8471 90.6899 98.0411 90.6899C127.207 90.6899 145.244 79.2857 154.347 61.8886C135.671 61.046 118.097 54.1056 96.2785 40.1025C74.3071 26.0011 55.6429 28.8046 38.4986 42.3653C35.7467 44.5419 33.2509 46.8576 31.0478 49.1862L45.3865 107.896Z" fill="white"/>
<path d="M67.1467 259.471C75.1101 257.527 79.9892 249.494 78.0443 241.531L54.5273 145.241L45.3865 107.814L31.0478 49.1039L20.0824 19C11.8718 25.4944 6.0555 32.019 2.71188 36.7616C0.240662 40.2668 -0.593635 44.6696 0.423898 48.8359L49.206 248.574C51.1509 256.537 59.1832 261.416 67.1467 259.471Z" fill="#2F292B"/>
<path d="M309 213.5C285.5 213.5 267 207.75 253.5 196.25C240 184.75 232.833 167.833 232 145.5C231.833 140.667 231.75 133.5 231.75 124C231.75 114.333 231.833 107.083 232 102.25C232.833 80.25 240.083 63.3333 253.75 51.5C267.583 39.5 286 33.5 309 33.5C332 33.5 350.417 39.5 364.25 51.5C378.083 63.3333 385.333 80.25 386 102.25C386.333 111.917 386.5 119.167 386.5 124C386.5 128.667 386.333 135.833 386 145.5C385.167 167.833 378 184.75 364.5 196.25C351 207.75 332.5 213.5 309 213.5ZM309 177.5C318.167 177.5 325.417 174.75 330.75 169.25C336.25 163.75 339.167 155.333 339.5 144C339.833 134.333 340 127.5 340 123.5C340 119.167 339.833 112.333 339.5 103C339.167 91.6667 336.25 83.25 330.75 77.75C325.25 72.25 318 69.5 309 69.5C300 69.5 292.75 72.25 287.25 77.75C281.917 83.25 279 91.6667 278.5 103C278.333 107.667 278.25 114.5 278.25 123.5C278.25 132.333 278.333 139.167 278.5 144C279 155.333 281.917 163.75 287.25 169.25C292.583 174.75 299.833 177.5 309 177.5ZM418.979 258.5C417.312 258.5 415.812 257.917 414.479 256.75C413.312 255.583 412.729 254.083 412.729 252.25V87.25C412.729 85.4167 413.312 83.9167 414.479 82.75C415.812 81.5833 417.312 81 418.979 81H447.229C449.062 81 450.562 81.5833 451.729 82.75C452.895 83.9167 453.479 85.4167 453.479 87.25V96.25C462.479 84.4167 475.395 78.5 492.229 78.5C508.562 78.5 521.312 83.5833 530.479 93.75C539.645 103.917 544.645 118.25 545.479 136.75C545.645 138.917 545.729 142 545.729 146C545.729 150 545.645 153.083 545.479 155.25C544.812 173.25 539.812 187.5 530.479 198C521.145 208.333 508.395 213.5 492.229 213.5C475.895 213.5 463.729 207.917 455.729 196.75V252.25C455.729 254.083 455.145 255.583 453.979 256.75C452.812 257.917 451.312 258.5 449.479 258.5H418.979ZM478.729 180C486.562 180 492.145 177.667 495.479 173C498.979 168.333 500.979 161.917 501.479 153.75C501.812 150.417 501.979 147.833 501.979 146C501.979 144.167 501.812 141.583 501.479 138.25C500.979 130.083 498.979 123.667 495.479 119C492.145 114.333 486.562 112 478.729 112C471.062 112 465.395 114.417 461.729 119.25C458.229 123.917 456.229 130 455.729 137.5L455.479 146.75L455.729 156.25C456.062 163.083 458.145 168.75 461.979 173.25C465.812 177.75 471.395 180 478.729 180ZM576.693 258.5C575.027 258.5 573.527 257.917 572.193 256.75C571.027 255.583 570.443 254.083 570.443 252.25V87.25C570.443 85.4167 571.027 83.9167 572.193 82.75C573.527 81.5833 575.027 81 576.693 81H604.943C606.777 81 608.277 81.5833 609.443 82.75C610.61 83.9167 611.193 85.4167 611.193 87.25V96.25C620.193 84.4167 633.11 78.5 649.943 78.5C666.277 78.5 679.027 83.5833 688.193 93.75C697.36 103.917 702.36 118.25 703.193 136.75C703.36 138.917 703.443 142 703.443 146C703.443 150 703.36 153.083 703.193 155.25C702.527 173.25 697.527 187.5 688.193 198C678.86 208.333 666.11 213.5 649.943 213.5C633.61 213.5 621.443 207.917 613.443 196.75V252.25C613.443 254.083 612.86 255.583 611.693 256.75C610.527 257.917 609.027 258.5 607.193 258.5H576.693ZM636.443 180C644.277 180 649.86 177.667 653.193 173C656.693 168.333 658.693 161.917 659.193 153.75C659.527 150.417 659.693 147.833 659.693 146C659.693 144.167 659.527 141.583 659.193 138.25C658.693 130.083 656.693 123.667 653.193 119C649.86 114.333 644.277 112 636.443 112C628.777 112 623.11 114.417 619.443 119.25C615.943 123.917 613.943 130 613.443 137.5L613.193 146.75L613.443 156.25C613.777 163.083 615.86 168.75 619.693 173.25C623.527 177.75 629.11 180 636.443 180Z" fill="white"/>
<path d="M737.158 211C735.325 211 733.825 210.417 732.658 209.25C731.492 208.083 730.908 206.583 730.908 204.75V42.25C730.908 40.4167 731.492 38.9167 732.658 37.75C733.992 36.5833 735.492 36 737.158 36H769.408C771.242 36 772.742 36.5833 773.908 37.75C775.242 38.9167 775.908 40.4167 775.908 42.25V102.5H837.408V42.25C837.408 40.4167 837.992 38.9167 839.158 37.75C840.325 36.5833 841.825 36 843.658 36H875.908C877.742 36 879.242 36.5833 880.408 37.75C881.575 38.9167 882.158 40.4167 882.158 42.25V204.75C882.158 206.583 881.575 208.083 880.408 209.25C879.242 210.417 877.742 211 875.908 211H843.658C841.825 211 840.325 210.417 839.158 209.25C837.992 208.083 837.408 206.583 837.408 204.75V142.5H775.908V204.75C775.908 206.583 775.242 208.083 773.908 209.25C772.742 210.417 771.242 211 769.408 211H737.158ZM962.188 213.5C947.521 213.5 935.688 208.583 926.688 198.75C917.688 188.75 913.188 174.833 913.188 157V87.25C913.188 85.4167 913.771 83.9167 914.938 82.75C916.104 81.5833 917.604 81 919.438 81H950.688C952.521 81 954.021 81.5833 955.188 82.75C956.521 83.9167 957.188 85.4167 957.188 87.25V155.5C957.188 171.833 964.438 180 978.938 180C985.938 180 991.438 177.833 995.438 173.5C999.438 169.167 1001.44 163.167 1001.44 155.5V87.25C1001.44 85.4167 1002.02 83.9167 1003.19 82.75C1004.52 81.5833 1006.02 81 1007.69 81H1038.94C1040.77 81 1042.27 81.5833 1043.44 82.75C1044.6 83.9167 1045.19 85.4167 1045.19 87.25V204.75C1045.19 206.417 1044.6 207.917 1043.44 209.25C1042.27 210.417 1040.77 211 1038.94 211H1009.94C1008.27 211 1006.77 210.417 1005.44 209.25C1004.27 207.917 1003.69 206.417 1003.69 204.75V195.25C995.021 207.417 981.188 213.5 962.188 213.5ZM1154.09 213.5C1137.43 213.5 1124.51 207.917 1115.34 196.75V204.75C1115.34 206.417 1114.76 207.917 1113.59 209.25C1112.43 210.417 1110.93 211 1109.09 211H1080.84C1079.18 211 1077.68 210.417 1076.34 209.25C1075.18 207.917 1074.59 206.417 1074.59 204.75V39.75C1074.59 37.9167 1075.18 36.4167 1076.34 35.25C1077.68 34.0833 1079.18 33.5 1080.84 33.5H1111.34C1113.18 33.5 1114.68 34.0833 1115.84 35.25C1117.01 36.4167 1117.59 37.9167 1117.59 39.75V93.25C1126.93 83.4167 1139.09 78.5 1154.09 78.5C1170.26 78.5 1183.01 83.75 1192.34 94.25C1201.68 104.75 1206.68 119 1207.34 137C1207.51 139.167 1207.59 142.167 1207.59 146C1207.59 149.667 1207.51 152.583 1207.34 154.75C1206.51 173.417 1201.51 187.917 1192.34 198.25C1183.18 208.417 1170.43 213.5 1154.09 213.5ZM1140.59 180C1148.43 180 1154.01 177.667 1157.34 173C1160.84 168.333 1162.84 161.917 1163.34 153.75C1163.68 150.417 1163.84 147.833 1163.84 146C1163.84 144.167 1163.68 141.583 1163.34 138.25C1162.84 130.083 1160.84 123.667 1157.34 119C1154.01 114.333 1148.43 112 1140.59 112C1133.26 112 1127.68 114.25 1123.84 118.75C1120.01 123.25 1117.93 128.917 1117.59 135.75L1117.34 145L1117.59 154.5C1118.09 162 1120.09 168.167 1123.59 173C1127.26 177.667 1132.93 180 1140.59 180Z" fill="#2F292B"/>
</svg>
