<svg width="194" height="193" viewBox="0 0 194 193" fill="none" xmlns="http://www.w3.org/2000/svg">
<path fill-rule="evenodd" clip-rule="evenodd" d="M173.906 19.2357C172.143 8.32688 162.684 0 151.278 0H23.4301C10.765 0 0.50172 10.2633 0.50172 22.9241V169.276C0.50172 171.939 2.65903 174.101 5.32672 174.101C6.24454 174.101 7.09803 173.846 7.82714 173.402L29.1536 159.105C32.96 161.923 37.6263 163.645 42.7323 163.645H143.444L186.178 192.301C186.905 192.745 187.761 193 188.677 193C191.34 193 193.497 190.838 193.497 188.175V41.8188C193.497 30.3053 184.98 20.8612 173.906 19.2357ZM10.1517 160.224V22.9241C10.1517 15.6051 16.1068 9.65 23.4301 9.65H151.278C158.597 9.65 164.552 15.6051 164.552 22.9241V121.822C164.552 129.141 158.597 135.1 151.278 135.1H47.628L45.1855 136.736L10.1517 160.224ZM183.852 179.123L148.818 155.631L146.378 153.995H42.7301C41.0896 153.995 39.537 153.656 38.0895 153.111L50.5616 144.75H151.28C163.941 144.75 174.204 134.482 174.204 121.822V29.113C179.754 30.6999 183.854 35.7672 183.854 41.8167V179.123H183.852Z" fill="white"/>
<path d="M58.4017 72.9107C58.4017 78.2418 54.0828 82.5607 48.7517 82.5607C43.4249 82.5607 39.1017 78.2418 39.1017 72.9107C39.1017 67.5839 43.4249 63.2607 48.7517 63.2607C54.0828 63.2607 58.4017 67.5839 58.4017 72.9107Z" fill="white"/>
<path d="M135.602 72.9107C135.602 78.2418 131.283 82.5607 125.952 82.5607C120.625 82.5607 116.302 78.2418 116.302 72.9107C116.302 67.5839 120.625 63.2607 125.952 63.2607C131.283 63.2607 135.602 67.5839 135.602 72.9107Z" fill="white"/>
<path d="M97.0017 72.9107C97.0017 78.2418 92.6785 82.5607 87.3517 82.5607C82.0249 82.5607 77.7017 78.2418 77.7017 72.9107C77.7017 67.5839 82.0249 63.2607 87.3517 63.2607C92.6785 63.2607 97.0017 67.5839 97.0017 72.9107Z" fill="white"/>
</svg>
