<svg width="6324" height="1384" viewBox="0 0 6324 1384" fill="none" xmlns="http://www.w3.org/2000/svg">
<path d="M438.498 1285.37C449.425 1327.74 422.012 1370.47 377.269 1380.82C332.525 1391.16 287.395 1365.21 276.468 1322.84L2.3817 260.241C-3.33538 238.076 1.35218 214.654 15.2369 196.006C34.0233 170.776 66.7025 136.065 112.835 101.515C260.651 -9.18895 441.285 -34.8794 631.038 80.4334C769.811 164.765 853.003 185.023 968.31 163.97C1025.38 153.551 1075.92 200.21 1066.36 254.49C1028.19 471.321 858.856 640.393 550.851 640.393C425.548 640.393 344.507 682.479 306.366 773.112L438.498 1285.37ZM255.007 574.001C330.221 512.688 431.771 482.465 550.851 482.465C714.722 482.465 816.064 421.795 867.211 329.243C762.276 324.761 663.535 287.838 540.948 213.342C417.5 138.323 312.634 153.238 216.307 225.38C200.846 236.959 186.823 249.279 174.444 261.667L255.007 574.001Z" fill="#06B475"/>
<path d="M377.269 1380.38C422.012 1370.03 449.425 1327.3 438.498 1284.93L306.366 772.674L255.007 573.563L174.444 261.229L112.835 101.077C66.7025 135.627 34.0233 170.338 15.2369 195.568C1.35218 214.216 -3.33538 237.639 2.3817 259.803L276.468 1322.4C287.395 1364.77 332.525 1390.72 377.269 1380.38Z" fill="#302723"/>
<path d="M1699 1105.5C1581.5 1105.5 1489 1076.75 1421.5 1019.25C1354 961.75 1318.17 877.167 1314 765.5C1313.17 741.333 1312.75 705.5 1312.75 658C1312.75 609.667 1313.17 573.417 1314 549.25C1318.17 439.25 1354.42 354.667 1422.75 295.5C1491.92 235.5 1584 205.5 1699 205.5C1814 205.5 1906.08 235.5 1975.25 295.5C2044.42 354.667 2080.67 439.25 2084 549.25C2085.67 597.583 2086.5 633.833 2086.5 658C2086.5 681.333 2085.67 717.167 2084 765.5C2079.83 877.167 2044 961.75 1976.5 1019.25C1909 1076.75 1816.5 1105.5 1699 1105.5ZM1699 925.5C1744.83 925.5 1781.08 911.75 1807.75 884.25C1835.25 856.75 1849.83 814.667 1851.5 758C1853.17 709.667 1854 675.5 1854 655.5C1854 633.833 1853.17 599.667 1851.5 553C1849.83 496.333 1835.25 454.25 1807.75 426.75C1780.25 399.25 1744 385.5 1699 385.5C1654 385.5 1617.75 399.25 1590.25 426.75C1563.58 454.25 1549 496.333 1546.5 553C1545.67 576.333 1545.25 610.5 1545.25 655.5C1545.25 699.667 1545.67 733.833 1546.5 758C1549 814.667 1563.58 856.75 1590.25 884.25C1616.92 911.75 1653.17 925.5 1699 925.5ZM2248.89 1330.5C2240.56 1330.5 2233.06 1327.58 2226.39 1321.75C2220.56 1315.92 2217.64 1308.42 2217.64 1299.25V474.25C2217.64 465.083 2220.56 457.583 2226.39 451.75C2233.06 445.917 2240.56 443 2248.89 443H2390.14C2399.31 443 2406.81 445.917 2412.64 451.75C2418.48 457.583 2421.39 465.083 2421.39 474.25V519.25C2466.39 460.083 2530.98 430.5 2615.14 430.5C2696.81 430.5 2760.56 455.917 2806.39 506.75C2852.23 557.583 2877.23 629.25 2881.39 721.75C2882.23 732.583 2882.64 748 2882.64 768C2882.64 788 2882.23 803.417 2881.39 814.25C2878.06 904.25 2853.06 975.5 2806.39 1028C2759.73 1079.67 2695.98 1105.5 2615.14 1105.5C2533.48 1105.5 2472.64 1077.58 2432.64 1021.75V1299.25C2432.64 1308.42 2429.73 1315.92 2423.89 1321.75C2418.06 1327.58 2410.56 1330.5 2401.39 1330.5H2248.89ZM2547.64 938C2586.81 938 2614.73 926.333 2631.39 903C2648.89 879.667 2658.89 847.583 2661.39 806.75C2663.06 790.083 2663.89 777.167 2663.89 768C2663.89 758.833 2663.06 745.917 2661.39 729.25C2658.89 688.417 2648.89 656.333 2631.39 633C2614.73 609.667 2586.81 598 2547.64 598C2509.31 598 2480.98 610.083 2462.64 634.25C2445.14 657.583 2435.14 688 2432.64 725.5L2431.39 771.75L2432.64 819.25C2434.31 853.417 2444.73 881.75 2463.89 904.25C2483.06 926.75 2510.98 938 2547.64 938ZM3037.47 1330.5C3029.13 1330.5 3021.63 1327.58 3014.97 1321.75C3009.13 1315.92 3006.22 1308.42 3006.22 1299.25V474.25C3006.22 465.083 3009.13 457.583 3014.97 451.75C3021.63 445.917 3029.13 443 3037.47 443H3178.72C3187.88 443 3195.38 445.917 3201.22 451.75C3207.05 457.583 3209.97 465.083 3209.97 474.25V519.25C3254.97 460.083 3319.55 430.5 3403.72 430.5C3485.38 430.5 3549.13 455.917 3594.97 506.75C3640.8 557.583 3665.8 629.25 3669.97 721.75C3670.8 732.583 3671.22 748 3671.22 768C3671.22 788 3670.8 803.417 3669.97 814.25C3666.63 904.25 3641.63 975.5 3594.97 1028C3548.3 1079.67 3484.55 1105.5 3403.72 1105.5C3322.05 1105.5 3261.22 1077.58 3221.22 1021.75V1299.25C3221.22 1308.42 3218.3 1315.92 3212.47 1321.75C3206.63 1327.58 3199.13 1330.5 3189.97 1330.5H3037.47ZM3336.22 938C3375.38 938 3403.3 926.333 3419.97 903C3437.47 879.667 3447.47 847.583 3449.97 806.75C3451.63 790.083 3452.47 777.167 3452.47 768C3452.47 758.833 3451.63 745.917 3449.97 729.25C3447.47 688.417 3437.47 656.333 3419.97 633C3403.3 609.667 3375.38 598 3336.22 598C3297.88 598 3269.55 610.083 3251.22 634.25C3233.72 657.583 3223.72 688 3221.22 725.5L3219.97 771.75L3221.22 819.25C3222.88 853.417 3233.3 881.75 3252.47 904.25C3271.63 926.75 3299.55 938 3336.22 938Z" fill="#06B475"/>
<path d="M3839.79 1093C3830.62 1093 3823.12 1090.08 3817.29 1084.25C3811.46 1078.42 3808.54 1070.92 3808.54 1061.75V249.25C3808.54 240.083 3811.46 232.583 3817.29 226.75C3823.96 220.917 3831.46 218 3839.79 218H4001.04C4010.21 218 4017.71 220.917 4023.54 226.75C4030.21 232.583 4033.54 240.083 4033.54 249.25V550.5H4341.04V249.25C4341.04 240.083 4343.96 232.583 4349.79 226.75C4355.62 220.917 4363.12 218 4372.29 218H4533.54C4542.71 218 4550.21 220.917 4556.04 226.75C4561.87 232.583 4564.79 240.083 4564.79 249.25V1061.75C4564.79 1070.92 4561.87 1078.42 4556.04 1084.25C4550.21 1090.08 4542.71 1093 4533.54 1093H4372.29C4363.12 1093 4355.62 1090.08 4349.79 1084.25C4343.96 1078.42 4341.04 1070.92 4341.04 1061.75V750.5H4033.54V1061.75C4033.54 1070.92 4030.21 1078.42 4023.54 1084.25C4017.71 1090.08 4010.21 1093 4001.04 1093H3839.79ZM4964.94 1105.5C4891.6 1105.5 4832.44 1080.92 4787.44 1031.75C4742.44 981.75 4719.94 912.167 4719.94 823V474.25C4719.94 465.083 4722.85 457.583 4728.69 451.75C4734.52 445.917 4742.02 443 4751.19 443H4907.44C4916.6 443 4924.1 445.917 4929.94 451.75C4936.6 457.583 4939.94 465.083 4939.94 474.25V815.5C4939.94 897.167 4976.19 938 5048.69 938C5083.69 938 5111.19 927.167 5131.19 905.5C5151.19 883.833 5161.19 853.833 5161.19 815.5V474.25C5161.19 465.083 5164.1 457.583 5169.94 451.75C5176.6 445.917 5184.1 443 5192.44 443H5348.69C5357.85 443 5365.35 445.917 5371.19 451.75C5377.02 457.583 5379.94 465.083 5379.94 474.25V1061.75C5379.94 1070.08 5377.02 1077.58 5371.19 1084.25C5365.35 1090.08 5357.85 1093 5348.69 1093H5203.69C5195.35 1093 5187.85 1090.08 5181.19 1084.25C5175.35 1077.58 5172.44 1070.08 5172.44 1061.75V1014.25C5129.1 1075.08 5059.94 1105.5 4964.94 1105.5ZM5924.47 1105.5C5841.14 1105.5 5776.55 1077.58 5730.72 1021.75V1061.75C5730.72 1070.08 5727.8 1077.58 5721.97 1084.25C5716.14 1090.08 5708.64 1093 5699.47 1093H5558.22C5549.89 1093 5542.39 1090.08 5535.72 1084.25C5529.89 1077.58 5526.97 1070.08 5526.97 1061.75V236.75C5526.97 227.583 5529.89 220.083 5535.72 214.25C5542.39 208.417 5549.89 205.5 5558.22 205.5H5710.72C5719.89 205.5 5727.39 208.417 5733.22 214.25C5739.05 220.083 5741.97 227.583 5741.97 236.75V504.25C5788.64 455.083 5849.47 430.5 5924.47 430.5C6005.3 430.5 6069.05 456.75 6115.72 509.25C6162.39 561.75 6187.39 633 6190.72 723C6191.55 733.833 6191.97 748.833 6191.97 768C6191.97 786.333 6191.55 800.917 6190.72 811.75C6186.55 905.083 6161.55 977.583 6115.72 1029.25C6069.89 1080.08 6006.14 1105.5 5924.47 1105.5ZM5856.97 938C5896.14 938 5924.05 926.333 5940.72 903C5958.22 879.667 5968.22 847.583 5970.72 806.75C5972.39 790.083 5973.22 777.167 5973.22 768C5973.22 758.833 5972.39 745.917 5970.72 729.25C5968.22 688.417 5958.22 656.333 5940.72 633C5924.05 609.667 5896.14 598 5856.97 598C5820.3 598 5792.39 609.25 5773.22 631.75C5754.05 654.25 5743.64 682.583 5741.97 716.75L5740.72 763L5741.97 810.5C5744.47 848 5754.47 878.833 5771.97 903C5790.3 926.333 5818.64 938 5856.97 938Z" fill="#302723"/>
</svg>
