<svg width="197" height="197" viewBox="0 0 197 197" fill="none" xmlns="http://www.w3.org/2000/svg">
<path d="M131.922 0.00697622C140.502 -0.119575 149.02 1.4768 156.972 4.70163C164.923 7.92646 172.147 12.7141 178.215 18.7811C184.17 24.7366 188.895 31.8068 192.118 39.5881C195.341 47.3694 197 55.7093 197 64.1317C197 72.5541 195.341 80.894 192.118 88.6753C188.895 96.4566 184.17 103.527 178.215 109.482C172.259 115.438 165.189 120.162 157.408 123.385C149.627 126.608 141.287 128.267 132.864 128.267C124.442 128.267 116.102 126.608 108.321 123.385C100.539 120.162 93.4691 115.438 87.5137 109.482C81.5581 103.527 76.8338 96.4566 73.6107 88.6753C70.3875 80.894 68.7286 72.5541 68.7286 64.1317C68.7286 55.7093 70.3875 47.3694 73.6107 39.5881C76.8338 31.8068 81.5581 24.7366 87.5137 18.7811C99.3113 6.98533 115.241 0.25093 131.922 0.00697622V0.00697622ZM132.064 9.61266C117.88 9.81964 104.334 15.5463 94.3033 25.5772C89.2396 30.6405 85.2228 36.6517 82.4823 43.2675C79.7418 49.8832 78.3313 56.974 78.3313 64.1349C78.3313 71.2958 79.7418 78.3867 82.4823 85.0025C85.2228 91.6183 89.2396 97.6295 94.3033 102.693C99.3666 107.757 105.378 111.773 111.994 114.514C118.609 117.254 125.7 118.665 132.861 118.665C140.022 118.665 147.113 117.254 153.729 114.514C160.344 111.773 166.356 107.757 171.419 102.693C176.483 97.6295 180.499 91.6183 183.24 85.0025C185.98 78.3867 187.391 71.2958 187.391 64.1349C187.391 56.974 185.98 49.8832 183.24 43.2675C180.499 36.6517 176.483 30.6405 171.419 25.5772C166.261 20.4188 160.12 16.3481 153.36 13.6059C146.6 10.8637 139.358 9.50577 132.064 9.61266Z" fill="#2F292B"/>
<path d="M82.9059 103.815C85.7431 100.978 90.3432 100.978 93.1804 103.815C96.0177 106.653 96.0177 111.253 93.1805 114.09L46.7675 160.503C43.9302 163.34 39.3301 163.34 36.4929 160.503C33.6556 157.666 33.6556 153.066 36.4929 150.228L82.9059 103.815Z" fill="#2F292B"/>
<path d="M58.9905 124.896L72.0995 138.005C74.9368 140.843 74.9368 145.443 72.0995 148.28L28.5209 191.859C25.6837 194.696 21.0836 194.696 18.2464 191.859L5.13735 178.75C2.30009 175.912 2.30009 171.312 5.13735 168.475L48.7159 124.896C51.5532 122.059 56.1533 122.059 58.9905 124.896Z" fill="#2F292B"/>
<path d="M114.719 75.4553C112.834 77.3397 112.834 80.3949 114.719 82.2792C116.603 84.1636 119.658 84.1636 121.543 82.2792L151.009 52.8125C152.894 50.9282 152.894 47.873 151.009 45.9886C149.125 44.1043 146.07 44.1043 144.186 45.9886L114.719 75.4553Z" fill="#3BA881"/>
<path d="M144.186 82.2793C146.07 84.1636 149.125 84.1636 151.01 82.2793C152.894 80.3949 152.894 77.3397 151.01 75.4554L121.543 45.9887C119.659 44.1043 116.603 44.1043 114.719 45.9887C112.835 47.873 112.835 50.9282 114.719 52.8126L144.186 82.2793Z" fill="#3BA881"/>
</svg>
