<svg width="94" height="82" viewBox="0 0 94 82" fill="none" xmlns="http://www.w3.org/2000/svg">
<path d="M16.8376 40.8002V39.4002H20.5017C21.9649 39.4002 23.1778 38.582 23.9293 37.3625L23.938 37.3484L23.9458 37.3337C24.5985 36.0981 24.6171 34.5021 23.8263 33.3279L15.7975 20.4421C15.1092 19.2636 13.8621 18.7002 12.5609 18.7002C11.2305 18.7002 10.0064 19.3851 9.33246 20.429L9.33103 20.4312L1.09971 33.3312L1.09966 33.3312L1.09554 33.3379C0.319621 34.597 0.323247 36.0861 0.982257 37.3337C1.6505 38.5988 2.98344 39.4002 4.42638 39.4002H8.09046V40.8002C8.09046 62.9619 25.5375 81.0002 47.1324 81.0002C56.356 81.0002 65.2841 77.6566 72.3467 71.4788C74.2066 69.8945 74.4098 66.9877 72.8952 65.0884L72.8526 65.035L72.7972 64.995C71.8567 64.3152 70.8637 63.6092 69.6228 63.6003C68.438 63.4947 67.3383 63.8333 66.4591 64.626C61.0278 69.3475 54.0757 72.0002 47.0356 72.0002C30.3799 72.0002 16.8376 58.0393 16.8376 40.8002Z" fill="#06B475" stroke="#06B475"/>
<path d="M76.9432 42.1H73.2792C71.816 42.1 70.603 42.9182 69.8515 44.1377L69.8428 44.1518L69.835 44.1665C69.1824 45.4021 69.1638 46.9981 69.9545 48.1722L77.9834 61.0581C78.657 62.2118 79.8868 62.9 81.22 62.9C82.5531 62.9 83.783 62.2118 84.4566 61.0581L92.4631 48.2081C93.5571 47.0467 93.6594 45.5295 92.9923 44.2665C92.324 43.0014 90.9911 42.2 89.5481 42.2H85.8841V40.8C85.8841 18.6399 68.4387 0.5 46.8421 0.5C37.6185 0.5 28.6904 3.84361 21.6278 10.0214C19.7679 11.6058 19.5647 14.5125 21.0793 16.4117C22.6168 18.3396 25.4597 18.5578 27.314 16.9809L27.314 16.9809L27.3182 16.9773C32.75 12.2538 39.7036 9.6 46.7453 9.6C63.4009 9.6 76.9432 23.5609 76.9432 40.8V42.1Z" fill="#06B475" stroke="#06B475"/>
</svg>
