<svg width="250" height="255" viewBox="0 0 250 255" fill="none" xmlns="http://www.w3.org/2000/svg">
<path d="M246.787 134.565C241.935 128.286 233.374 126.859 224.241 130.569C221.958 131.425 218.534 132.852 214.538 134.565L231.09 89.1884C232.517 85.193 232.232 80.9122 230.52 77.2022C228.807 73.4922 225.668 70.6384 221.673 69.2114C218.819 68.0699 215.68 68.0699 212.826 68.9261L214.824 63.2184C216.25 59.223 215.965 54.9422 214.253 51.2322C212.54 47.5222 209.401 44.6684 205.406 43.2415C197.415 40.3876 188.568 44.6684 185.714 52.3738C184.002 50.0907 181.434 48.093 178.58 46.9515C170.589 44.0976 161.742 48.3784 158.603 56.3691L155.749 64.3599C154.037 62.0768 151.468 60.0791 148.614 59.223C140.624 56.3691 131.777 60.6499 128.637 68.9261L119.505 94.6107L115.224 83.766C113.797 79.7707 110.658 76.6314 106.948 74.9191C103.238 73.2068 99.2428 73.2068 95.5328 74.6337C92.6789 75.7753 90.3959 77.773 88.6836 80.0561L85.5443 72.3507C84.1174 68.3553 80.9782 65.2161 77.2682 63.5038C73.5582 61.7914 69.5628 61.7914 65.8528 63.2184C62.9989 64.3599 60.7159 66.3576 59.0036 68.6407C57.2912 64.9307 54.4374 62.0768 50.7274 60.3645C47.0174 58.6522 43.022 58.6522 39.312 60.0791C31.6066 63.2184 27.6113 72.3507 30.7505 80.3414L33.0336 86.0491C30.1797 85.4784 27.3259 85.4784 24.472 86.6199C16.7666 89.7591 12.7713 98.8914 15.9105 106.882L36.1728 158.251L23.9013 150.831C20.4766 148.548 16.4813 147.407 12.7713 147.978C8.77587 148.548 5.06587 150.831 2.7828 154.256C-2.06874 161.105 -0.356432 170.808 6.20741 175.945C8.77587 178.514 41.8805 204.769 53.8666 213.331C62.7136 219.609 73.5582 223.034 84.4028 223.034C91.5374 223.034 98.9574 221.607 106.092 218.753C117.222 214.187 126.64 206.481 132.918 196.208C136.343 198.491 140.053 200.203 144.048 201.63C150.612 203.913 157.461 205.054 164.31 205.054C176.297 205.054 187.712 201.344 197.415 194.21C209.401 185.363 242.22 157.966 244.218 156.254C250.782 151.117 251.924 141.128 246.787 134.565ZM103.238 212.189C87.542 218.468 70.7043 216.755 57.5766 207.623C45.8759 199.061 11.6297 171.665 11.3443 171.379C7.63434 168.525 6.77818 163.103 9.34664 159.108C10.4882 157.395 12.4859 155.968 14.7689 155.683C17.052 155.398 19.0497 155.968 20.762 157.11C20.762 157.11 21.0474 157.11 21.0474 157.395L42.4512 170.238C43.5928 171.094 45.3051 170.808 46.4466 169.952C47.5882 169.096 47.8736 167.384 47.3028 165.957L23.0451 104.885C21.3328 100.318 23.3305 95.4668 27.6113 93.7545C29.3236 93.1837 31.3213 93.1837 33.3189 94.0399C35.3166 94.8961 37.0289 96.6084 38.1705 98.6061L51.0128 131.711C51.5836 133.138 53.0105 133.994 54.152 133.994C54.4374 133.994 55.0082 133.994 55.2936 133.708C57.0059 133.138 57.862 130.855 57.2913 129.142L44.7343 97.1791V96.8937C44.7343 96.6084 44.4489 96.323 44.4489 96.0376L37.5997 78.3438C35.8874 73.7776 37.8851 68.9261 42.1659 67.2137C44.1636 66.3576 46.4466 66.3576 48.4443 67.2137C50.442 68.0699 52.1543 69.7822 53.0105 72.0653L57.5766 84.0514L72.4166 122.578C72.9874 124.005 74.4143 124.861 75.5559 124.861C75.8412 124.861 76.412 124.861 76.6974 124.576C78.4097 124.005 79.2659 121.722 78.6951 120.01L64.4259 82.6245L64.1405 81.7684C62.4282 77.2022 64.4259 72.3507 68.7066 70.6384C70.7043 69.7822 72.9874 69.7822 74.9851 70.6384C76.9828 71.4945 78.6951 73.2068 79.5512 75.4899L87.2566 94.8961C87.2566 95.1814 87.2566 95.1814 87.542 95.4668L97.8159 122.578C98.3866 124.291 100.67 125.147 102.382 124.576C104.094 124.005 104.95 121.722 104.38 120.01L93.8205 92.8984C92.1082 88.3322 94.1059 83.4807 98.3866 81.7684C100.384 80.9122 102.667 80.9122 104.665 81.7684C106.663 82.6245 108.375 84.3368 109.231 86.6199L132.062 145.98C141.48 172.806 128.923 201.915 103.238 212.189ZM239.652 150.831C239.367 151.117 204.835 179.655 193.134 188.502C180.292 198.205 162.598 200.488 146.617 194.781C143.192 193.639 139.767 191.927 136.628 189.929C136.914 189.358 137.199 188.788 137.484 187.931C143.477 173.948 144.048 158.251 138.911 143.697L123.786 104.885L135.487 71.4945C137.199 66.9284 142.05 64.6453 146.331 66.0722C148.329 66.9284 150.041 68.3553 151.183 70.353C152.039 72.3507 152.324 74.9191 151.468 76.9168L141.194 106.026C140.624 107.738 141.48 109.736 143.192 110.592C143.477 110.592 144.048 110.878 144.334 110.878C145.76 110.878 147.187 110.021 147.758 108.595L158.032 79.4853C158.032 79.1999 158.032 79.1999 158.317 78.9145L165.452 59.223C167.164 54.6568 172.016 52.3738 176.297 53.8007C178.294 54.6568 180.007 56.0838 181.148 58.0814C182.004 60.0791 182.29 62.6476 181.434 64.9307L181.148 65.7868L166.879 107.168C166.308 108.88 167.164 110.878 169.162 111.734C169.447 111.734 170.018 112.019 170.304 112.019C171.73 112.019 173.157 111.163 173.728 109.736L188.568 67.4991L192.849 55.513C194.561 50.9468 199.413 48.6638 203.694 50.0907C205.691 50.9468 207.404 52.3738 208.545 54.3714C209.401 56.3691 209.687 58.9376 208.83 60.9353L202.552 78.0584C202.267 78.6291 202.267 78.9145 201.981 79.4853C201.981 79.7707 201.981 80.0561 201.696 80.0561L188.854 115.444C188.283 117.156 189.139 119.154 190.851 120.01C191.137 120.01 191.707 120.295 191.993 120.295C193.42 120.295 194.847 119.439 195.417 118.012L208.83 80.9122C210.828 76.9168 215.68 74.6337 219.39 76.0607C221.387 76.9168 223.1 78.3438 224.241 80.3414C225.097 82.3391 225.383 84.9076 224.527 86.9053L205.691 137.989C202.552 139.131 199.698 140.272 198.271 140.843C180.292 133.994 170.589 141.985 162.598 148.263C161.171 149.405 160.886 151.688 162.027 153.115C163.169 154.541 165.452 154.827 166.879 153.685C174.584 147.407 181.719 141.414 196.844 147.692C197.7 147.978 198.557 147.978 199.413 147.692C200.269 147.407 219.96 139.701 226.81 136.848C230.52 135.421 237.369 133.423 241.079 138.56C244.218 142.555 243.362 147.978 239.652 150.831Z" fill="#3BA881"/>
<path d="M45.0197 36.1067L62.7135 47.5221C63.2843 47.8075 63.8551 48.0929 64.7112 48.0929C65.8527 48.0929 66.9943 47.5221 67.5651 46.3806C68.7066 44.6683 68.1358 42.6706 66.4235 41.5291L48.7297 30.1137C47.0174 28.9721 45.0197 29.5429 43.8781 31.2552C42.7366 32.9675 43.3074 34.9652 45.0197 36.1067Z" fill="#2F292B"/>
<path d="M86.6858 33.2531C87.2566 34.68 88.3981 35.5362 90.1104 35.5362C90.3958 35.5362 90.9666 35.5362 91.252 35.2508C92.9643 34.68 94.1058 32.6823 93.535 30.6846L83.832 2.43155C83.2612 0.719242 81.2635 -0.422295 79.2658 0.148474C77.5535 0.719243 76.412 2.71693 76.9827 4.71463L86.6858 33.2531Z" fill="#2F292B"/>
<path d="M117.507 30.6846C117.793 30.97 118.364 30.97 118.649 30.97C120.076 30.97 121.503 30.1139 121.788 28.687L128.923 8.99542C129.494 7.28311 128.637 5.28542 126.925 4.42927C125.213 3.8585 123.215 4.71465 122.359 6.42696L115.224 26.1185C114.654 28.1162 115.795 30.1139 117.507 30.6846Z" fill="#2F292B"/>
<path d="M142.621 227.6C140.909 227.029 138.911 228.17 138.34 229.883L132.347 249.86C131.777 251.572 132.918 253.57 134.63 254.14C134.916 254.14 135.201 254.426 135.772 254.426C137.199 254.426 138.626 253.57 139.197 251.857L145.19 231.88C145.475 230.168 144.619 228.17 142.621 227.6Z" fill="#2F292B"/>
<path d="M172.301 222.463C171.445 220.751 169.447 219.894 167.735 220.465C166.023 221.321 165.167 223.319 165.737 225.031L177.153 252.714C177.724 254.141 179.15 254.997 180.292 254.997C180.863 254.997 181.148 254.997 181.719 254.711C183.431 253.855 184.287 251.857 183.717 250.145L172.301 222.463Z" fill="#2F292B"/>
<path d="M213.967 215.614L195.703 205.34C193.99 204.484 191.993 205.055 190.851 206.767C189.995 208.479 190.566 210.477 192.278 211.619L210.543 221.892C211.114 222.178 211.684 222.463 212.255 222.463C213.397 222.463 214.538 221.892 215.394 220.751C216.25 218.753 215.68 216.756 213.967 215.614Z" fill="#2F292B"/>
</svg>
