<svg width="66" height="65" viewBox="0 0 66 65" fill="none" xmlns="http://www.w3.org/2000/svg">
<path d="M14.2007 63.0338C13.9393 62.999 13.6874 62.9117 13.4596 62.7769C13.2318 62.6421 13.0327 62.4625 12.874 62.2486C12.7153 62.0347 12.6001 61.7908 12.5351 61.5312C12.4701 61.2715 12.4567 61.0014 12.4956 60.7364L15.4696 40.8667L1.59112 26.5993C1.33043 26.3381 1.14593 26.0087 1.05804 25.6475C0.970143 25.2863 0.982279 24.9074 1.0931 24.5528C1.20393 24.1982 1.40912 23.8816 1.68597 23.6382C1.96282 23.3948 2.30053 23.234 2.66174 23.1735L22.1312 19.9492L31.2117 2.09473C31.3784 1.76504 31.6313 1.48841 31.9426 1.29529C32.2539 1.10217 32.6116 1 32.9763 1C33.341 1 33.6986 1.10217 34.0099 1.29529C34.3212 1.48841 34.5741 1.76504 34.7408 2.09473L43.8213 19.9492L63.2908 23.1735C63.6552 23.2279 63.9976 23.3842 64.2796 23.6252C64.5615 23.8661 64.7719 24.1822 64.8872 24.5378C65.0024 24.8934 65.018 25.2746 64.9321 25.6387C64.8463 26.0028 64.6624 26.3354 64.4011 26.5993L50.5226 40.8667L53.4965 60.7364C53.5496 61.1017 53.503 61.4749 53.3618 61.8151C53.2205 62.1554 52.99 62.4496 52.6955 62.6658C52.4009 62.8821 52.0536 63.012 51.6914 63.0413C51.3292 63.0706 50.9661 62.9983 50.6416 62.8322L32.9961 53.7639L15.3506 62.8322C14.9958 63.015 14.5952 63.0853 14.2007 63.0338ZM17.016 57.4315L32.0841 49.7335C32.3608 49.5919 32.6664 49.5181 32.9763 49.5181C33.2861 49.5181 33.5917 49.5919 33.8684 49.7335L48.9761 57.4315L46.4384 40.4637C46.3969 40.1572 46.4255 39.8451 46.5217 39.5516C46.618 39.2581 46.7794 38.9909 46.9935 38.771L58.8893 26.559L42.1955 23.778C41.8834 23.7285 41.5874 23.6038 41.3322 23.4146C41.077 23.2253 40.87 22.9768 40.7284 22.6898L32.9564 7.41479L25.2241 22.6898C25.0863 22.9719 24.8854 23.2173 24.6376 23.4062C24.3897 23.5952 24.1017 23.7225 23.7966 23.778L7.10285 26.5187L18.9987 38.771C19.2128 38.9909 19.3742 39.2581 19.4705 39.5516C19.5667 39.8451 19.5952 40.1572 19.5538 40.4637L17.016 57.4315Z" fill="#06B475" stroke="#06B475" stroke-width="2"/>
</svg>
