<svg width="81" height="81" viewBox="0 0 81 81" fill="none" xmlns="http://www.w3.org/2000/svg">
<path d="M78.7427 31.911L77.0333 30.7479C75.1438 29.4954 74.3341 27.0797 74.9639 24.9325L75.5037 22.9642C76.4035 19.9222 74.3341 16.7908 71.1851 16.254L69.1157 15.8962C66.8664 15.5383 65.067 13.8384 64.7071 11.6017L64.3472 9.5439C63.8074 6.4125 60.6584 4.44419 57.5993 5.33888L55.62 5.96516C53.4606 6.59143 51.0314 5.78622 49.7718 3.99685L48.5122 2.20748C46.6228 -0.387108 42.9339 -0.744982 40.5947 1.40226L39.0651 2.83376C37.3557 4.35472 34.9264 4.7126 32.8571 3.54951L31.0576 2.56535C28.2685 1.04439 24.7596 2.29695 23.5 5.24941L22.6903 7.21772C21.8805 9.36496 19.7212 10.707 17.4719 10.528L15.4025 10.4386C12.1636 10.2596 9.55437 12.9437 9.82428 16.0751L10.0042 18.1329C10.1842 20.3696 8.83459 22.5168 6.76524 23.4115L4.87583 24.2167C1.90676 25.4693 0.737123 28.9586 2.26665 31.7321L3.34631 33.5215C4.51594 35.4898 4.24603 37.9949 2.71651 39.6948L1.36693 41.2157C-0.792398 43.6314 -0.342539 47.2996 2.35662 49.089L4.06608 50.2521C5.95549 51.5046 6.76524 53.9203 6.13544 56.0675L5.32569 58.1253C4.42597 61.1672 6.49532 64.2986 9.64434 64.8354L11.7137 65.1933C13.963 65.5512 15.7624 67.2511 16.1223 69.4878L16.4822 71.5456C17.022 74.677 20.171 76.6453 23.2301 75.7506L25.2095 75.1243C27.3688 74.498 29.798 75.3032 31.0576 77.0926L32.3172 78.7925C34.2067 81.3871 37.8955 81.745 40.2348 79.5977L41.7643 78.1662C43.4738 76.6453 45.903 76.2874 47.9724 77.4505L49.7718 78.4346C52.5609 79.9556 56.0698 78.7031 57.3294 75.7506L58.1392 73.7823C58.9489 71.635 61.1082 70.293 63.3575 70.4719L65.4269 70.5614C68.6659 70.7404 71.2751 68.0563 71.0051 64.9249L70.9152 62.8671C70.7352 60.6304 72.0848 58.4832 74.1542 57.5885L76.0436 56.7833C79.0126 55.5307 80.1823 52.0414 78.6528 49.2679L77.5731 47.4785C76.4035 45.5102 76.6734 43.0051 78.2029 41.3052L79.5525 39.7843C81.8018 37.4581 81.3519 33.7004 78.7427 31.911ZM42.844 48.8206L35.4663 56.0675L28.1785 48.7311L21.1607 41.6631L28.5384 34.4161L35.5562 41.4842L52.381 24.843L59.6687 32.1794L42.844 48.8206Z" fill="#06B475"/>
</svg>
