<svg width="156" height="163" viewBox="0 0 156 163" fill="none" xmlns="http://www.w3.org/2000/svg">
<path d="M113.931 0.708065C100.34 3.43623 89.389 14.6723 86.7093 28.6085C81.6506 54.9058 104.716 74.5092 122.093 71.7389C127.726 70.8389 130.488 64.0606 127.904 58.8434C124.745 52.4589 129.257 45.0056 136.23 45.0056H147.127C152.021 45.0056 155.986 40.8431 156 35.8227C155.932 13.6598 136.326 -3.77794 113.931 0.708065ZM99.1236 45.0056C96.7037 45.0056 94.7485 42.9947 94.7485 40.5056C94.7485 38.0165 96.7037 36.0055 99.1236 36.0055C101.544 36.0055 103.499 38.0165 103.499 40.5056C103.499 42.9947 101.544 45.0056 99.1236 45.0056ZM103.499 27.0054C101.079 27.0054 99.1236 24.9944 99.1236 22.5053C99.1236 20.0162 101.079 18.0052 103.499 18.0052C105.919 18.0052 107.874 20.0162 107.874 22.5053C107.874 24.9944 105.919 27.0054 103.499 27.0054ZM120.999 18.0052C118.579 18.0052 116.624 15.9942 116.624 13.5051C116.624 11.016 118.579 9.00507 120.999 9.00507C123.419 9.00507 125.374 11.016 125.374 13.5051C125.374 15.9942 123.419 18.0052 120.999 18.0052ZM138.5 27.0054C136.08 27.0054 134.124 24.9944 134.124 22.5053C134.124 20.0162 136.08 18.0052 138.5 18.0052C140.92 18.0052 142.875 20.0162 142.875 22.5053C142.875 24.9944 140.92 27.0054 138.5 27.0054Z" fill="white"/>
<path d="M150.384 147.318L132.856 120.074V98.25H134.053C136.042 98.25 137.642 96.7035 137.642 94.7812V92.4688C137.642 90.5465 136.042 89 134.053 89H102.945C100.956 89 99.3559 90.5465 99.3559 92.4688V94.7812C99.3559 96.7035 100.956 98.25 102.945 98.25H104.142V120.074L86.6138 147.318C82.2318 154.126 87.2868 163 95.602 163H141.396C149.726 163 154.766 154.111 150.384 147.318ZM105.622 135.25L112.831 124.034C113.384 123.283 113.698 122.358 113.698 121.375V98.25H123.27V121.375C123.27 122.372 123.599 123.283 124.137 124.034L131.346 135.25H105.622Z" fill="white"/>
<path d="M63.4375 163H6.5625C2.93809 163 0 160.026 0 156.357V107.643C0 103.974 2.93809 101 6.5625 101H63.4375C67.0619 101 70 103.974 70 107.643V156.357C70 160.026 67.0619 163 63.4375 163ZM17.5 113.179C14.4797 113.179 12.0312 115.657 12.0312 118.714C12.0312 121.772 14.4797 124.25 17.5 124.25C20.5203 124.25 22.9688 121.772 22.9688 118.714C22.9688 115.657 20.5203 113.179 17.5 113.179ZM17.5 126.464C14.4797 126.464 12.0312 128.943 12.0312 132C12.0312 135.057 14.4797 137.536 17.5 137.536C20.5203 137.536 22.9688 135.057 22.9688 132C22.9688 128.943 20.5203 126.464 17.5 126.464ZM17.5 139.75C14.4797 139.75 12.0312 142.228 12.0312 145.286C12.0312 148.343 14.4797 150.821 17.5 150.821C20.5203 150.821 22.9688 148.343 22.9688 145.286C22.9688 142.228 20.5203 139.75 17.5 139.75ZM56.875 120.929V116.5C56.875 115.583 56.1404 114.839 55.2344 114.839H27.8906C26.9846 114.839 26.25 115.583 26.25 116.5V120.929C26.25 121.846 26.9846 122.589 27.8906 122.589H55.2344C56.1404 122.589 56.875 121.846 56.875 120.929ZM56.875 134.214V129.786C56.875 128.869 56.1404 128.125 55.2344 128.125H27.8906C26.9846 128.125 26.25 128.869 26.25 129.786V134.214C26.25 135.131 26.9846 135.875 27.8906 135.875H55.2344C56.1404 135.875 56.875 135.131 56.875 134.214ZM56.875 147.5V143.071C56.875 142.154 56.1404 141.411 55.2344 141.411H27.8906C26.9846 141.411 26.25 142.154 26.25 143.071V147.5C26.25 148.417 26.9846 149.161 27.8906 149.161H55.2344C56.1404 149.161 56.875 148.417 56.875 147.5Z" fill="white"/>
</svg>
