<svg width="529" height="454" viewBox="0 0 529 454" fill="none" xmlns="http://www.w3.org/2000/svg">
<path d="M505.407 110.394V49.912H449.055V0H60.461V31.1216H23.48V110.394H0V392.837C0 426.307 27.002 453.318 59.874 453.318H468.426C508.929 453.318 528.3 433.941 528.3 393.424V110.394H505.407ZM42.264 110.394V49.912H59.874V110.394H42.264ZM313.458 79.8592C308.762 90.4288 303.479 103.347 300.544 110.394H79.245V40.5168V18.7904H429.684V49.3248H392.703C387.42 49.3248 382.137 49.3248 377.441 49.3248C349.265 49.3248 326.959 48.7376 313.458 79.8592ZM450.229 106.87H367.462C362.179 106.87 358.07 102.76 358.07 97.4752C358.07 92.1904 362.179 88.08 367.462 88.08H450.816C456.099 88.08 460.208 92.1904 460.208 97.4752C460.208 102.76 455.512 106.87 450.229 106.87Z" fill="#5396AB"/>
<path d="M280.113 289.522C280.113 319.063 272.789 341.769 258.141 357.638C243.492 373.507 222.496 381.441 195.152 381.441C167.809 381.441 146.812 373.507 132.164 357.638C117.516 341.769 110.191 318.982 110.191 289.278C110.191 259.575 117.516 236.91 132.164 221.285C146.894 205.579 167.971 197.726 195.396 197.726C222.822 197.726 243.777 205.619 258.263 221.407C272.83 237.195 280.113 259.9 280.113 289.522ZM149.864 289.522C149.864 309.461 153.648 324.475 161.217 334.566C168.785 344.658 180.097 349.703 195.152 349.703C225.344 349.703 240.44 329.643 240.44 289.522C240.44 249.321 225.426 229.22 195.396 229.22C180.341 229.22 168.989 234.306 161.339 244.479C153.689 254.57 149.864 269.584 149.864 289.522ZM422.447 329.439C422.447 345.553 416.629 358.248 404.991 367.525C393.435 376.803 377.322 381.441 356.651 381.441C337.608 381.441 320.763 377.861 306.114 370.699V335.543C318.159 340.914 328.331 344.698 336.632 346.896C345.014 349.093 352.664 350.191 359.581 350.191C367.882 350.191 374.229 348.604 378.624 345.431C383.1 342.257 385.338 337.537 385.338 331.271C385.338 327.771 384.361 324.679 382.408 321.993C380.455 319.226 377.566 316.581 373.741 314.059C369.998 311.536 362.307 307.507 350.67 301.974C339.765 296.847 331.586 291.923 326.134 287.203C320.681 282.483 316.327 276.99 313.072 270.724C309.817 264.457 308.189 257.133 308.189 248.751C308.189 232.963 313.52 220.553 324.181 211.52C334.923 202.486 349.734 197.97 368.614 197.97C377.892 197.97 386.721 199.068 395.104 201.266C403.567 203.463 412.397 206.555 421.593 210.543L409.386 239.962C399.864 236.056 391.97 233.329 385.704 231.783C379.519 230.237 373.416 229.464 367.394 229.464C360.232 229.464 354.739 231.132 350.914 234.469C347.089 237.805 345.177 242.159 345.177 247.53C345.177 250.867 345.95 253.797 347.496 256.319C349.042 258.761 351.484 261.161 354.82 263.521C358.238 265.8 366.254 269.951 378.868 275.973C395.551 283.948 406.985 291.964 413.17 300.021C419.355 307.996 422.447 317.802 422.447 329.439Z" fill="white"/>
</svg>
